<svg xmlns="http://www.w3.org/2000/svg"  viewBox="0 0 96 96" color="#ffffff">
    <g fill="none" fill-rule="evenodd">
        <g>
            <path stroke="currentColor" stroke-width="1.5" stroke-linecap="round" stroke-linejoin="round" d="M86.937 21.5117v32l5.196-3v-32z"/>
            <path stroke="currentColor" stroke-width="1.5" stroke-linecap="round" stroke-linejoin="round" d="M64.4204 2.5117l27.713 16-5.196 3-27.713-16z"/>
            <path stroke="currentColor" stroke-width="1.5" stroke-linecap="round" stroke-linejoin="round" d="M86.937 53.5117v-32l-27.712-16v17.937"/>
            <path d="M74.813 34.5117c0 1.104.775 2.448 1.732 3 .956.553 1.732.104 1.732-1s-.776-2.447-1.732-3c-.957-.552-1.732-.104-1.732 1M67.8848 22.5117c0 1.104.775 2.448 1.732 3 .956.553 1.732.104 1.732-1s-.776-2.447-1.732-3c-.957-.552-1.732-.104-1.732 1" fill="#1890FF"/>
            <path d="M74.813 26.5117c0 1.104.775 2.448 1.732 3 .956.553 1.732.104 1.732-1s-.776-2.447-1.732-3c-.957-.552-1.732-.104-1.732 1" fill="currentColor"/>
            <path d="M71.4141 38.4756l5.131-2.964M64.4771 26.4805l5.14-2.969" stroke="#1890FF" stroke-width="1.5" stroke-linecap="round" stroke-linejoin="round"/>
            <path stroke="currentColor" stroke-width="1.5" stroke-linecap="round" stroke-linejoin="round" d="M71.4141 30.4854l-5.196 3-34.641-20 5.196-3zM66.2183 73.4854l5.196-3v-40l-5.196 3z"/>
            <path stroke="currentColor" stroke-width="1.5" stroke-linecap="round" stroke-linejoin="round" d="M66.2183 73.4854v-40l-34.641-20v18"/>
            <path d="M54.0938 54.4854c0 1.104.775 2.448 1.732 3 .956.553 1.732.104 1.732-1s-.776-2.447-1.732-3c-.957-.552-1.732-.104-1.732 1" fill="currentColor"/>
            <path d="M54.0938 46.4854c0 1.104.775 2.448 1.732 3 .956.553 1.732.104 1.732-1s-.776-2.447-1.732-3c-.957-.552-1.732-.104-1.732 1M40.2373 30.4854c0 1.104.775 2.448 1.732 3 .956.553 1.732.104 1.732-1s-.776-2.447-1.732-3c-.957-.552-1.732-.104-1.732 1M47.1655 34.4854c0 1.104.775 2.448 1.732 3 .956.553 1.732.104 1.732-1s-.776-2.447-1.732-3c-.957-.552-1.732-.104-1.732 1" fill="#1890FF"/>
            <path d="M54.0938 38.4854c0 1.104.775 2.448 1.732 3 .956.553 1.732.104 1.732-1s-.776-2.447-1.732-3c-.957-.552-1.732-.104-1.732 1" fill="currentColor"/>
            <path d="M43.7017 38.4863l5.196-3.001M50.6323 50.4775l5.131-2.963M36.7734 34.4863l5.196-3.001" stroke="#1890FF" stroke-width="1.5" stroke-linecap="round" stroke-linejoin="round"/>
            <path stroke="currentColor" stroke-width="1.5" stroke-linecap="round" stroke-linejoin="round" d="M9.0635 18.4883l-5.196 3 41.569 24 5.196-3z"/>
            <path stroke="currentColor" stroke-width="1.5" stroke-linecap="round" stroke-linejoin="round" d="M50.6323 42.4883l-5.196 3v47.999l5.196-3zM3.8667 21.4883v48l41.569 24v-48z"/>
            <path d="M12.5273 62.4883c0 1.104.775 2.447 1.732 3 .956.552 1.732.104 1.732-1 0-1.105-.776-2.448-1.732-3-.957-.553-1.732-.105-1.732 1" fill="#1890FF"/>
            <path d="M19.4556 66.4883c0 1.104.775 2.447 1.732 3 .956.552 1.732.104 1.732-1 0-1.105-.776-2.448-1.732-3-.957-.553-1.732-.105-1.732 1M26.3838 70.4883c0 1.104.775 2.447 1.732 3 .956.552 1.732.104 1.732-1 0-1.105-.776-2.448-1.732-3-.957-.553-1.732-.105-1.732 1M33.312 74.4883c0 1.104.775 2.447 1.732 3 .956.552 1.732.104 1.732-1 0-1.105-.776-2.448-1.732-3-.957-.553-1.732-.105-1.732 1M12.5273 54.4883c0 1.104.775 2.447 1.732 3 .956.552 1.732.104 1.732-1s-.776-2.448-1.732-3c-.957-.553-1.732-.104-1.732 1" fill="currentColor"/>
            <path d="M19.4556 58.4883c0 1.104.775 2.447 1.732 3 .956.552 1.732.104 1.732-1s-.776-2.448-1.732-3c-.957-.553-1.732-.104-1.732 1" fill="#1890FF"/>
            <path d="M26.3838 62.4883c0 1.104.775 2.447 1.732 3 .956.552 1.732.104 1.732-1s-.776-2.448-1.732-3c-.957-.553-1.732-.104-1.732 1M33.312 66.4883c0 1.104.775 2.447 1.732 3 .956.552 1.732.104 1.732-1s-.776-2.448-1.732-3c-.957-.553-1.732-.104-1.732 1M12.5273 46.4883c0 1.104.775 2.447 1.732 3 .956.552 1.732.104 1.732-1s-.776-2.448-1.732-3c-.957-.553-1.732-.104-1.732 1M19.4556 50.4883c0 1.104.775 2.447 1.732 3 .956.552 1.732.104 1.732-1s-.776-2.448-1.732-3c-.957-.553-1.732-.104-1.732 1M26.3838 54.4883c0 1.104.775 2.447 1.732 3 .956.552 1.732.104 1.732-1s-.776-2.448-1.732-3c-.957-.553-1.732-.104-1.732 1" fill="currentColor"/>
            <path d="M33.312 58.4883c0 1.104.775 2.447 1.732 3 .956.552 1.732.104 1.732-1s-.776-2.448-1.732-3c-.957-.553-1.732-.104-1.732 1" fill="#1890FF"/>
            <path d="M12.5273 38.4883c0 1.104.775 2.447 1.732 3 .956.552 1.732.104 1.732-1s-.776-2.448-1.732-3c-.957-.553-1.732-.104-1.732 1" fill="currentColor"/>
            <path d="M19.4556 42.4883c0 1.104.775 2.447 1.732 3 .956.552 1.732.104 1.732-1s-.776-2.448-1.732-3c-.957-.553-1.732-.104-1.732 1M26.3838 46.4883c0 1.104.775 2.447 1.732 3 .956.552 1.732.104 1.732-1s-.776-2.448-1.732-3c-.957-.553-1.732-.104-1.732 1" fill="#1890FF"/>
            <path d="M33.312 50.4883c0 1.104.775 2.447 1.732 3 .956.552 1.732.104 1.732-1s-.776-2.448-1.732-3c-.957-.553-1.732-.104-1.732 1" fill="currentColor"/>
            <path d="M66.2183 73.4854l-15.586-8.998M86.937 53.5117l-15.523-8.962" stroke="currentColor" stroke-width="1.5" stroke-linecap="round" stroke-linejoin="round"/>
        </g>
        <path fill="none" d="M0 0h96v96H0z"/>
    </g>
</svg>