<svg xmlns="http://www.w3.org/2000/svg" viewBox="0 0 892 92" color="#ffffff">

    <rect x="31" y="11" width="10" height="10" fill="currentColor"/>
    <rect x="21" y="11" width="10" height="10" fill="currentColor"/>
    <rect x="11" y="21" width="10" height="10" fill="currentColor"/>
    <rect x="11" y="31" width="10" height="10" fill="currentColor"/>
    <rect x="11" y="41" width="10" height="10" fill="currentColor"/>
    <rect x="11" y="51" width="10" height="10" fill="currentColor"/>
    <rect x="11" y="61" width="10" height="10" fill="currentColor"/>
    <rect x="21" y="71" width="10" height="10" fill="currentColor"/>
    <rect x="31" y="71" width="10" height="10" fill="currentColor"/>
    <rect x="41" y="71" width="10" height="10" fill="currentColor"/>
    <rect x="51" y="61" width="10" height="10" fill="currentColor"/>
    <rect x="51" y="51" width="10" height="10" fill="currentColor"/>
    <rect x="51" y="41" width="10" height="10" fill="currentColor"/>
    <rect x="51" y="31" width="10" height="10" fill="currentColor"/>
    <rect x="51" y="21" width="10" height="10" fill="currentColor"/>
    <rect x="41" y="11" width="10" height="10" fill="currentColor"/>
    <rect x="71" y="11" width="10" height="10" fill="currentColor"/>
    <rect x="71" y="21" width="10" height="10" fill="currentColor"/>
    <rect x="71" y="31" width="10" height="10" fill="currentColor"/>
    <rect x="71" y="41" width="10" height="10" fill="currentColor"/>
    <rect x="71" y="51" width="10" height="10" fill="currentColor"/>
    <rect x="71" y="61" width="10" height="10" fill="currentColor"/>
    <rect x="71" y="71" width="10" height="10" fill="currentColor"/>
    <rect x="81" y="31" width="10" height="10" fill="currentColor"/>
    <rect x="91" y="41" width="10" height="10" fill="currentColor"/>
    <rect x="101" y="51" width="10" height="10" fill="currentColor"/>
    <rect x="111" y="11" width="10" height="10" fill="currentColor"/>
    <rect x="111" y="21" width="10" height="10" fill="currentColor"/>
    <rect x="111" y="31" width="10" height="10" fill="currentColor"/>
    <rect x="111" y="41" width="10" height="10" fill="currentColor"/>
    <rect x="111" y="51" width="10" height="10" fill="currentColor"/>
    <rect x="111" y="61" width="10" height="10" fill="currentColor"/>
    <rect x="111" y="71" width="10" height="10" fill="currentColor"/>

    <rect x="131" y="11" width="10" height="10" fill="currentColor"/>
    <rect x="131" y="21" width="10" height="10" fill="currentColor"/>
    <rect x="131" y="31" width="10" height="10" fill="currentColor"/>
    <rect x="131" y="41" width="10" height="10" fill="currentColor"/>
    <rect x="131" y="51" width="10" height="10" fill="currentColor"/>
    <rect x="131" y="61" width="10" height="10" fill="currentColor"/>
    <rect x="131" y="71" width="10" height="10" fill="currentColor"/>
    <rect x="141" y="71" width="10" height="10" fill="currentColor"/>
    <rect x="151" y="71" width="10" height="10" fill="currentColor"/>
    <rect x="161" y="71" width="10" height="10" fill="currentColor"/>
    <rect x="171" y="71" width="10" height="10" fill="currentColor"/>
    <rect x="141" y="11" width="10" height="10" fill="currentColor"/>
    <rect x="151" y="11" width="10" height="10" fill="currentColor"/>
    <rect x="161" y="11" width="10" height="10" fill="currentColor"/>
    <rect x="171" y="11" width="10" height="10" fill="currentColor"/>
    <rect x="141" y="41" width="10" height="10" fill="currentColor"/>
    <rect x="151" y="41" width="10" height="10" fill="currentColor"/>
    <rect x="161" y="41" width="10" height="10" fill="currentColor"/>

    <rect x="231" y="11" width="10" height="10" fill="currentColor"/>
    <rect x="241" y="11" width="10" height="10" fill="currentColor"/>
    <rect x="251" y="11" width="10" height="10" fill="currentColor"/>
    <rect x="261" y="21" width="10" height="10" fill="currentColor"/>
    <rect x="261" y="31" width="10" height="10" fill="currentColor"/>
    <rect x="251" y="41" width="10" height="10" fill="currentColor"/>
    <rect x="241" y="41" width="10" height="10" fill="currentColor"/>
    <rect x="231" y="41" width="10" height="10" fill="currentColor"/>
    <rect x="221" y="11" width="10" height="10" fill="currentColor"/>
    <rect x="221" y="21" width="10" height="10" fill="currentColor"/>
    <rect x="221" y="31" width="10" height="10" fill="currentColor"/>
    <rect x="221" y="41" width="10" height="10" fill="currentColor"/>
    <rect x="221" y="51" width="10" height="10" fill="currentColor"/>
    <rect x="221" y="61" width="10" height="10" fill="currentColor"/>
    <rect x="221" y="71" width="10" height="10" fill="currentColor"/>

    <rect x="281" y="11" width="10" height="10" fill="currentColor"/>
    <rect x="291" y="11" width="10" height="10" fill="currentColor"/>
    <rect x="301" y="11" width="10" height="10" fill="currentColor"/>
    <rect x="291" y="21" width="10" height="10" fill="currentColor"/>
    <rect x="291" y="31" width="10" height="10" fill="currentColor"/>
    <rect x="291" y="41" width="10" height="10" fill="currentColor"/>
    <rect x="291" y="51" width="10" height="10" fill="currentColor"/>
    <rect x="291" y="61" width="10" height="10" fill="currentColor"/>
    <rect x="281" y="71" width="10" height="10" fill="currentColor"/>
    <rect x="291" y="71" width="10" height="10" fill="currentColor"/>
    <rect x="301" y="71" width="10" height="10" fill="currentColor"/>

    <rect x="321" y="11" width="10" height="10" fill="currentColor"/>
    <rect x="321" y="21" width="10" height="10" fill="currentColor"/>
    <rect x="331" y="31" width="10" height="10" fill="currentColor"/>
    <rect x="341" y="41" width="10" height="10" fill="currentColor"/>
    <rect x="351" y="51" width="10" height="10" fill="currentColor"/>
    <rect x="361" y="61" width="10" height="10" fill="currentColor"/>
    <rect x="361" y="71" width="10" height="10" fill="currentColor"/>
    <rect x="361" y="11" width="10" height="10" fill="currentColor"/>
    <rect x="361" y="21" width="10" height="10" fill="currentColor"/>
    <rect x="351" y="31" width="10" height="10" fill="currentColor"/>
    <rect x="331" y="51" width="10" height="10" fill="currentColor"/>
    <rect x="321" y="61" width="10" height="10" fill="currentColor"/>
    <rect x="321" y="71" width="10" height="10" fill="currentColor"/>

    <rect x="381" y="11" width="10" height="10" fill="currentColor"/>
    <rect x="381" y="21" width="10" height="10" fill="currentColor"/>
    <rect x="381" y="31" width="10" height="10" fill="currentColor"/>
    <rect x="381" y="41" width="10" height="10" fill="currentColor"/>
    <rect x="381" y="51" width="10" height="10" fill="currentColor"/>
    <rect x="381" y="61" width="10" height="10" fill="currentColor"/>
    <rect x="381" y="71" width="10" height="10" fill="currentColor"/>
    <rect x="391" y="71" width="10" height="10" fill="currentColor"/>
    <rect x="401" y="71" width="10" height="10" fill="currentColor"/>
    <rect x="411" y="71" width="10" height="10" fill="currentColor"/>
    <rect x="421" y="71" width="10" height="10" fill="currentColor"/>
    <rect x="391" y="11" width="10" height="10" fill="currentColor"/>
    <rect x="401" y="11" width="10" height="10" fill="currentColor"/>
    <rect x="411" y="11" width="10" height="10" fill="currentColor"/>
    <rect x="421" y="11" width="10" height="10" fill="currentColor"/>
    <rect x="391" y="41" width="10" height="10" fill="currentColor"/>
    <rect x="401" y="41" width="10" height="10" fill="currentColor"/>
    <rect x="411" y="41" width="10" height="10" fill="currentColor"/>

    <rect x="441" y="11" width="10" height="10" fill="currentColor"/>
    <rect x="441" y="21" width="10" height="10" fill="currentColor"/>
    <rect x="441" y="31" width="10" height="10" fill="currentColor"/>
    <rect x="441" y="41" width="10" height="10" fill="currentColor"/>
    <rect x="441" y="51" width="10" height="10" fill="currentColor"/>
    <rect x="441" y="61" width="10" height="10" fill="currentColor"/>
    <rect x="441" y="71" width="10" height="10" fill="currentColor"/>
    <rect x="451" y="71" width="10" height="10" fill="currentColor"/>
    <rect x="461" y="71" width="10" height="10" fill="currentColor"/>
    <rect x="471" y="71" width="10" height="10" fill="currentColor"/>
    <rect x="481" y="71" width="10" height="10" fill="currentColor"/>

    <rect x="551" y="11" width="10" height="10" fill="currentColor"/>
    <rect x="541" y="21" width="10" height="10" fill="currentColor"/>
    <rect x="531" y="31" width="10" height="10" fill="currentColor"/>
    <rect x="531" y="41" width="10" height="10" fill="currentColor"/>
    <rect x="531" y="51" width="10" height="10" fill="currentColor"/>
    <rect x="531" y="61" width="10" height="10" fill="currentColor"/>
    <rect x="531" y="71" width="10" height="10" fill="currentColor"/>
    <rect x="561" y="21" width="10" height="10" fill="currentColor"/>
    <rect x="571" y="31" width="10" height="10" fill="currentColor"/>
    <rect x="571" y="41" width="10" height="10" fill="currentColor"/>
    <rect x="571" y="51" width="10" height="10" fill="currentColor"/>
    <rect x="571" y="61" width="10" height="10" fill="currentColor"/>
    <rect x="571" y="71" width="10" height="10" fill="currentColor"/>
    <rect x="541" y="51" width="10" height="10" fill="currentColor"/>
    <rect x="551" y="51" width="10" height="10" fill="currentColor"/>
    <rect x="561" y="51" width="10" height="10" fill="currentColor"/>

    <rect x="591" y="11" width="10" height="10" fill="currentColor"/>
    <rect x="601" y="11" width="10" height="10" fill="currentColor"/>
    <rect x="611" y="11" width="10" height="10" fill="currentColor"/>
    <rect x="621" y="11" width="10" height="10" fill="currentColor"/>
    <rect x="631" y="11" width="10" height="10" fill="currentColor"/>
    <rect x="611" y="21" width="10" height="10" fill="currentColor"/>
    <rect x="611" y="31" width="10" height="10" fill="currentColor"/>
    <rect x="611" y="41" width="10" height="10" fill="currentColor"/>
    <rect x="611" y="51" width="10" height="10" fill="currentColor"/>
    <rect x="611" y="61" width="10" height="10" fill="currentColor"/>
    <rect x="611" y="71" width="10" height="10" fill="currentColor"/>

    <rect x="651" y="11" width="10" height="10" fill="currentColor"/>
    <rect x="661" y="11" width="10" height="10" fill="currentColor"/>
    <rect x="671" y="11" width="10" height="10" fill="currentColor"/>
    <rect x="681" y="11" width="10" height="10" fill="currentColor"/>
    <rect x="691" y="11" width="10" height="10" fill="currentColor"/>
    <rect x="671" y="21" width="10" height="10" fill="currentColor"/>
    <rect x="671" y="31" width="10" height="10" fill="currentColor"/>
    <rect x="671" y="41" width="10" height="10" fill="currentColor"/>
    <rect x="671" y="51" width="10" height="10" fill="currentColor"/>
    <rect x="671" y="61" width="10" height="10" fill="currentColor"/>
    <rect x="671" y="71" width="10" height="10" fill="currentColor"/>

    <rect x="731" y="11" width="10" height="10" fill="currentColor"/>
    <rect x="721" y="21" width="10" height="10" fill="currentColor"/>
    <rect x="711" y="31" width="10" height="10" fill="currentColor"/>
    <rect x="711" y="41" width="10" height="10" fill="currentColor"/>
    <rect x="711" y="51" width="10" height="10" fill="currentColor"/>
    <rect x="711" y="61" width="10" height="10" fill="currentColor"/>
    <rect x="711" y="71" width="10" height="10" fill="currentColor"/>
    <rect x="741" y="21" width="10" height="10" fill="currentColor"/>
    <rect x="751" y="31" width="10" height="10" fill="currentColor"/>
    <rect x="751" y="41" width="10" height="10" fill="currentColor"/>
    <rect x="751" y="51" width="10" height="10" fill="currentColor"/>
    <rect x="751" y="61" width="10" height="10" fill="currentColor"/>
    <rect x="751" y="71" width="10" height="10" fill="currentColor"/>
    <rect x="721" y="51" width="10" height="10" fill="currentColor"/>
    <rect x="731" y="51" width="10" height="10" fill="currentColor"/>
    <rect x="741" y="51" width="10" height="10" fill="currentColor"/>

    <rect x="811" y="21" width="10" height="10" fill="currentColor"/>
    <rect x="801" y="11" width="10" height="10" fill="currentColor"/>
    <rect x="791" y="11" width="10" height="10" fill="currentColor"/>
    <rect x="781" y="11" width="10" height="10" fill="currentColor"/>
    <rect x="771" y="21" width="10" height="10" fill="currentColor"/>
    <rect x="771" y="31" width="10" height="10" fill="currentColor"/>
    <rect x="771" y="41" width="10" height="10" fill="currentColor"/>
    <rect x="771" y="51" width="10" height="10" fill="currentColor"/>
    <rect x="771" y="61" width="10" height="10" fill="currentColor"/>
    <rect x="781" y="71" width="10" height="10" fill="currentColor"/>
    <rect x="791" y="71" width="10" height="10" fill="currentColor"/>
    <rect x="801" y="71" width="10" height="10" fill="currentColor"/>
    <rect x="811" y="61" width="10" height="10" fill="currentColor"/>

    <rect x="831" y="11" width="10" height="10" fill="currentColor"/>
    <rect x="831" y="21" width="10" height="10" fill="currentColor"/>
    <rect x="831" y="31" width="10" height="10" fill="currentColor"/>
    <rect x="831" y="41" width="10" height="10" fill="currentColor"/>
    <rect x="831" y="51" width="10" height="10" fill="currentColor"/>
    <rect x="831" y="61" width="10" height="10" fill="currentColor"/>
    <rect x="831" y="71" width="10" height="10" fill="currentColor"/>
    <rect x="871" y="11" width="10" height="10" fill="currentColor"/>
    <rect x="871" y="21" width="10" height="10" fill="currentColor"/>
    <rect x="861" y="31" width="10" height="10" fill="currentColor"/>
    <rect x="841" y="41" width="10" height="10" fill="currentColor"/>
    <rect x="851" y="41" width="10" height="10" fill="currentColor"/>
    <rect x="861" y="51" width="10" height="10" fill="currentColor"/>
    <rect x="871" y="61" width="10" height="10" fill="currentColor"/>
    <rect x="871" y="71" width="10" height="10" fill="currentColor"/>

</svg>